# xmcd
#
# Track frame offsets:
#	151
#	19164
#	33905
#	46924
#	64557
#	79777
#	99431
#	114649
#	129725
#	146604
#	158600
#	170826
#	181040
#
# Disc length: 2622 seconds
#
# Revision: 1
# Processed by: cddbd v1.5PL3 Copyright (c) Steve Scherf et al.
# Submitted via: audiograbber 1.83.01
#
DISCID=a30a3c0d
DTITLE=Chantal Hamel - Un rêve la Louisiane
DYEAR=1999
DGENRE=Country
TTITLE0=I don't know
TTITLE1=Le grand Texas
TTITLE2=Un rêve la Louisiane
TTITLE3=Toi maman
TTITLE4=Chanson au prisonnier
TTITLE5=Un amour de passage
TTITLE6=Blues roses
TTITLE7=Comme un oiseau
TTITLE8=Mon amour
TTITLE9=L'homme parfait
TTITLE10=Je ne veux plus de toi
TTITLE11=Un bon matin
TTITLE12=L'amour entre nous
EXTD=
EXTT0=
EXTT1=
EXTT2=
EXTT3=
EXTT4=
EXTT5=
EXTT6=
EXTT7=
EXTT8=
EXTT9=
EXTT10=
EXTT11=
EXTT12=
PLAYORDER=
